# Blender 4.3.2
# www.blender.org
mtllib brutalist_room.mtl
o Plane
v -7.124678 0.082997 3.920648
v 5.959578 0.082997 3.920648
v -7.124678 0.082996 -2.554944
v 5.959578 0.082996 -2.554944
v -7.124678 0.082997 1.966496
v 5.959578 0.082997 1.966496
v 5.959578 0.082996 -1.836110
v -7.124678 0.082996 -1.836111
v -4.662239 0.082997 3.920648
v -4.662239 0.082996 -2.554944
v 4.849811 0.082997 3.920648
v 4.849811 0.082996 -2.554944
v -4.660239 0.080997 1.966496
v -4.662239 0.080997 1.964496
v -4.664239 0.082997 1.968496
v -4.660239 0.080996 -1.836111
v -4.664239 0.082996 -1.838110
v -4.662239 0.080996 -1.834110
v 4.847811 0.080997 1.966496
v 4.851810 0.082997 1.968496
v 4.849811 0.080997 1.964496
v 4.847811 0.080996 -1.836110
v 4.849811 0.080996 -1.834110
v 4.851810 0.082996 -1.838110
v 4.847811 0.021470 1.966496
v 4.849811 0.021470 1.964496
v 4.851810 0.019470 1.968496
v -4.664239 0.019470 1.968496
v -4.662239 0.021470 1.964496
v -4.660239 0.021470 1.966496
v 4.851810 0.019470 -1.838110
v 4.849811 0.021470 -1.834110
v 4.847811 0.021470 -1.836110
v -4.660239 0.021470 -1.836111
v -4.662239 0.021470 -1.834110
v -4.664239 0.019470 -1.838110
v 4.865322 0.019470 1.982007
v 4.867322 0.017470 1.982007
v 4.865322 0.017470 1.984007
v -4.677751 0.017470 1.984007
v -4.679750 0.017470 1.982007
v -4.677751 0.019470 1.982007
v 4.865322 0.017470 -1.853622
v 4.867322 0.017470 -1.851622
v 4.865322 0.019470 -1.851622
v -4.677751 0.017470 -1.853622
v -4.677751 0.019470 -1.851622
v -4.679750 0.017470 -1.851622
v 4.865322 0.007891 1.984007
v 4.867322 0.007891 1.982007
v 4.865322 0.005891 1.982007
v -4.677751 0.007891 1.984007
v -4.677751 0.005891 1.982007
v -4.679750 0.007891 1.982007
v 4.865322 0.005890 -1.851622
v 4.867322 0.007890 -1.851622
v 4.865322 0.007890 -1.853622
v -4.677751 0.007890 -1.853622
v -4.679750 0.007890 -1.851622
v -4.677751 0.005890 -1.851622
v -2.335052 0.073315 -2.508806
v -2.333052 0.073315 -2.510806
v -2.333052 2.490816 -2.510806
v -2.335052 2.490816 -2.508806
v -2.333052 0.073316 -1.867233
v -2.335052 0.073316 -1.869233
v -2.335052 2.490816 -1.869233
v -2.333052 2.490816 -1.867234
v -1.981071 2.490816 -1.867234
v -1.979072 2.490816 -1.869233
v -1.979072 2.490816 -2.508806
v -1.981071 2.490816 -2.510806
v -1.981071 0.073315 -2.510806
v -1.979072 0.073315 -2.508806
v -1.979072 0.073316 -1.869233
v -1.981071 0.073316 -1.867233
v -0.053219 0.073315 -2.508806
v -0.051219 0.073315 -2.510806
v -0.051219 2.490816 -2.510806
v -0.053219 2.490816 -2.508806
v -0.051219 0.073316 -1.867233
v -0.053219 0.073316 -1.869233
v -0.053219 2.490816 -1.869233
v -0.051219 2.490816 -1.867234
v 0.300761 2.490816 -1.867234
v 0.302761 2.490816 -1.869233
v 0.302761 2.490816 -2.508806
v 0.300761 2.490816 -2.510806
v 0.300761 0.073315 -2.510806
v 0.302761 0.073315 -2.508806
v 0.302761 0.073316 -1.869233
v 0.300761 0.073316 -1.867233
v 2.228614 0.073315 -2.508806
v 2.230613 0.073315 -2.510806
v 2.230613 2.490816 -2.510806
v 2.228614 2.490816 -2.508806
v 2.230613 0.073316 -1.867233
v 2.228614 0.073316 -1.869233
v 2.228614 2.490816 -1.869233
v 2.230613 2.490816 -1.867234
v 2.582594 2.490816 -1.867234
v 2.584594 2.490816 -1.869233
v 2.584594 2.490816 -2.508806
v 2.582594 2.490816 -2.510806
v 2.582594 0.073315 -2.510806
v 2.584594 0.073315 -2.508806
v 2.584594 0.073316 -1.869233
v 2.582594 0.073316 -1.867233
v -0.053219 0.090394 2.025342
v -0.051219 0.073316 2.023342
v -0.053219 0.073316 2.025342
v -0.051219 2.490816 2.023342
v -0.053219 2.489584 2.025342
v -0.053219 2.490816 2.025342
v -0.051219 0.073316 2.666914
v -0.053219 0.090394 2.664914
v -0.053219 0.073316 2.664914
v -0.053219 2.489584 2.664914
v -0.051219 2.490817 2.666914
v -0.053219 2.490817 2.664914
v 0.300761 2.490817 2.666914
v 0.302761 2.489584 2.664914
v 0.302761 2.490817 2.664914
v 0.302761 2.489584 2.025342
v 0.300761 2.490816 2.023342
v 0.302761 2.490816 2.025342
v 0.300761 0.073316 2.023342
v 0.302761 0.090394 2.025342
v 0.302761 0.073316 2.025342
v 0.302761 0.090394 2.664914
v 0.300761 0.073316 2.666914
v 0.302761 0.073316 2.664914
v -0.051219 2.347806 2.432723
v -0.051219 2.345806 2.434723
v -0.053219 2.348053 2.435124
v -0.051219 2.347806 2.257533
v -0.053219 2.348053 2.255132
v -0.051219 2.345806 2.255533
v -0.051219 2.055943 2.432723
v -0.053219 2.053429 2.435017
v -0.051219 2.057943 2.434723
v -0.051219 2.055943 2.257533
v -0.051219 2.057943 2.255533
v -0.053219 2.053429 2.255239
v 0.300761 2.347806 2.432723
v 0.302761 2.348053 2.435124
v 0.300761 2.345806 2.434723
v 0.300761 2.347806 2.257533
v 0.300761 2.345806 2.255533
v 0.302761 2.348053 2.255132
v 0.300761 2.055943 2.432723
v 0.300761 2.057943 2.434723
v 0.302761 2.053429 2.435017
v 0.300761 2.055943 2.257533
v 0.302761 2.053429 2.255239
v 0.300761 2.057943 2.255533
v -4.959221 2.490816 -2.028729
v 5.154965 2.490816 -2.028729
v 5.154965 2.490816 -2.334524
v -4.959221 2.490816 -2.334524
v -4.959221 1.986971 -2.030729
v -4.959221 1.988971 -2.028729
v 5.154965 1.988971 -2.028729
v 5.154965 1.986970 -2.030729
v 5.154965 1.986970 -2.332524
v 5.154965 1.988971 -2.334524
v -4.959221 1.988971 -2.334524
v -4.959221 1.986971 -2.332524
v -2.266388 2.490816 -1.881339
v -2.266388 2.490817 2.547801
v -2.047735 2.490817 2.547801
v -2.047735 2.490816 -1.881339
v 0.015861 2.490816 -1.881339
v 0.015861 2.490817 2.547801
v 0.234515 2.490817 2.547801
v 0.234515 2.490816 -1.881339
v 2.294801 2.490816 -1.881339
v 2.294801 2.490817 2.547801
v 2.513454 2.490817 2.547801
v 2.513454 2.490816 -1.881339
v -4.710822 2.490816 0.094564
v 4.906567 2.490816 0.094565
v 4.906567 2.490816 -0.124089
v -4.710822 2.490816 -0.124089
v 4.906567 2.490816 -1.162256
v -4.710822 2.490816 -1.162257
v 4.906567 2.490816 -1.380910
v -4.710822 2.490816 -1.380910
v 4.906567 2.490817 1.378358
v -4.710822 2.490816 1.378357
v 4.906567 2.490817 1.159704
v -4.710822 2.490816 1.159704
v -2.264389 2.125974 -1.881339
v -2.266388 2.127974 -1.881339
v -2.266388 2.127975 2.547801
v -2.264389 2.125975 2.547801
v -2.049735 2.125975 2.547801
v -2.047735 2.127975 2.547801
v -2.047735 2.127974 -1.881339
v -2.049735 2.125974 -1.881339
v 0.017862 2.125974 -1.881339
v 0.015861 2.127974 -1.881339
v 0.015861 2.127975 2.547801
v 0.017862 2.125975 2.547801
v 0.232515 2.125975 2.547801
v 0.234515 2.127975 2.547801
v 0.234515 2.127974 -1.881339
v 0.232515 2.125974 -1.881339
v 2.296800 2.125974 -1.881339
v 2.294801 2.127974 -1.881339
v 2.294801 2.127975 2.547801
v 2.296800 2.125975 2.547801
v 2.511454 2.125975 2.547801
v 2.513454 2.127975 2.547801
v 2.513454 2.127974 -1.881339
v 2.511454 2.125974 -1.881339
v -4.710822 2.180778 0.092564
v -4.710822 2.182778 0.094564
v 4.906567 2.182778 0.094565
v 4.906567 2.180778 0.092565
v 4.906567 2.180778 -0.122089
v 4.906567 2.182778 -0.124089
v -4.710822 2.182778 -0.124089
v -4.710822 2.180778 -0.122089
v 4.906567 2.182778 -1.162256
v 4.906567 2.180778 -1.164256
v -4.710822 2.180778 -1.164256
v -4.710822 2.182778 -1.162256
v 4.906567 2.180778 -1.378910
v 4.906567 2.182778 -1.380910
v -4.710822 2.182778 -1.380910
v -4.710822 2.180778 -1.378910
v 4.906567 2.182778 1.378358
v 4.906567 2.180779 1.376358
v -4.710822 2.180778 1.376358
v -4.710822 2.182778 1.378357
v 4.906567 2.180778 1.161704
v 4.906567 2.182778 1.159704
v -4.710822 2.182778 1.159704
v -4.710822 2.180778 1.161704
v -4.959221 0.073315 -2.554944
v -4.710822 2.490816 2.546165
v -4.916621 2.490816 -2.554945
v -4.959221 1.913131 -2.554945
v 4.906567 0.073316 3.876068
v -4.710822 0.073316 3.876068
v -4.959221 0.073316 3.876068
v 5.154965 0.073316 -2.554944
v 4.906567 2.490816 2.546165
v 5.103512 2.490816 -2.554945
v 5.154965 1.913131 -2.554945
v 5.154965 0.073317 3.876068
v -4.959221 0.073316 2.514728
v -4.959221 1.913132 2.514728
v 5.154965 0.073316 2.514728
v 5.154965 1.913132 2.514728
v -4.934037 0.073316 1.420456
v -4.934037 1.913131 1.420455
v -4.934037 0.073316 3.876068
v -2.360337 2.490816 -1.420456
v -2.292887 0.073316 3.876068
v -2.360337 2.490816 -2.554945
v -2.292887 2.490816 1.420455
v -1.953828 2.490816 -2.554945
v -1.953828 2.490816 -1.420456
v -2.023466 0.073316 3.876068
v -2.023466 2.490816 1.420455
v -0.082106 2.490816 -2.554945
v -0.082106 2.490816 -1.420456
v -0.082106 0.073316 3.876068
v -0.082106 2.490816 1.420455
v 0.329901 2.490816 -2.554945
v 0.329901 2.490816 -1.420456
v 0.329901 0.073316 3.876068
v 0.329901 2.490816 1.420455
v 2.198352 2.490816 -2.554945
v 2.198352 2.490816 -1.420456
v 2.267429 0.073316 3.876068
v 2.267429 2.490816 1.420455
v 2.612350 2.490816 -2.554945
v 2.612350 2.490816 -1.420456
v 2.541071 0.073316 3.876068
v 2.541071 2.490816 1.420455
v 5.124252 0.073316 1.420456
v 5.124252 1.913131 1.420455
v 5.124252 0.073317 3.876068
v -4.959221 0.073315 -2.478876
v -4.959221 0.073315 -2.409687
v -4.959221 1.913131 -2.478876
v -4.959221 1.913131 -2.409687
v 5.154965 0.073316 -2.409687
v 5.154965 0.073316 -2.478876
v 5.154965 1.913131 -2.409687
v 5.154965 1.913131 -2.478876
v -4.959221 0.073316 2.544165
v -4.961221 0.073316 2.546165
v -4.959221 2.488816 2.544165
v -4.957221 2.490816 2.544165
v -4.957221 2.488816 2.546165
v -4.957221 2.490816 -2.554945
v -4.959221 2.488816 -2.554945
v -4.957221 2.488816 1.420455
v -4.957221 2.490816 1.422455
v -4.959221 2.488816 1.422455
v -4.957221 0.073316 1.420456
v -4.959221 0.073316 1.422456
v -4.712822 0.073316 -1.420455
v -4.710822 0.073316 -1.418456
v -4.710822 0.073316 1.418456
v -4.712822 0.073316 1.420456
v -4.710822 2.488816 -1.418456
v -4.712822 2.488816 -1.420456
v -4.708822 2.490816 -1.422456
v -4.959221 0.073316 -1.422456
v -4.957221 0.073316 -1.420455
v -4.957221 2.490816 -1.422456
v -4.957221 2.488816 -1.420456
v -4.959221 2.488816 -1.422456
v -4.712822 2.488816 1.420455
v -4.710822 2.488816 1.418455
v -4.708822 2.490816 1.422455
v 4.904567 2.490816 -1.422456
v 4.908566 2.488816 -1.420456
v 4.906567 2.488816 -1.418456
v -5.730590 0.073316 2.546165
v -5.732590 0.073316 2.546644
v -4.710822 1.915132 2.546165
v -4.710822 1.913132 2.548165
v -4.959221 1.913131 1.422455
v -4.957221 1.913131 1.420455
v -4.710822 1.913131 -1.418456
v -4.712822 1.913131 -1.420456
v -4.957221 1.913131 -1.420456
v -4.959221 1.913131 -1.422456
v -4.710822 1.913131 1.418455
v -4.712822 1.913131 1.420455
v -4.710822 1.913132 3.874067
v -4.710822 1.911132 3.876067
v -4.957221 1.915132 2.546165
v -4.959221 1.913132 2.548165
v -4.961221 1.911132 2.546165
v -4.959221 1.913132 2.544165
v -4.959221 1.913132 3.874067
v -4.959221 1.911132 3.876067
v -5.734590 1.450644 2.653838
v -5.732590 1.454431 2.653420
v -5.734590 1.452644 2.655838
v -5.734590 1.450644 3.234738
v -5.734590 1.452644 3.232738
v -5.732590 1.454393 3.237174
v -5.732590 0.073316 3.873649
v -5.730590 0.073316 3.876068
v 5.156965 0.073316 2.546165
v 5.154965 0.073316 2.544165
v 5.154965 2.488816 2.544165
v 5.152966 2.488816 2.546165
v 5.152966 2.490816 2.544165
v 5.154965 2.488816 -2.554945
v 5.152966 2.490816 -2.554945
v 5.152966 2.488816 1.420455
v 5.154965 2.488816 1.422455
v 5.152966 2.490816 1.422455
v 5.154965 0.073316 1.422456
v 5.152966 0.073316 1.420456
v 4.906567 0.073316 -1.418456
v 4.908566 0.073316 -1.420456
v 4.908566 0.073316 1.420456
v 4.906567 0.073316 1.418456
v 5.152966 0.073316 -1.420456
v 5.154965 0.073316 -1.422456
v 5.154965 2.488816 -1.422456
v 5.152966 2.488816 -1.420456
v 5.152966 2.490816 -1.422456
v 4.904567 2.490816 1.422455
v 4.906567 2.488816 1.418455
v 4.908566 2.488816 1.420455
v 5.928334 0.073316 2.548165
v 5.926334 0.073316 2.546165
v 4.906567 1.913132 2.548165
v 4.906567 1.915132 2.546165
v 5.152966 1.913131 1.420455
v 5.154965 1.913131 1.422455
v 4.906567 1.913131 -1.418456
v 4.908566 1.913131 -1.420456
v 5.154965 1.913131 -1.422456
v 5.152966 1.913131 -1.420456
v 4.908566 1.913131 1.420455
v 4.906567 1.913131 1.418455
v 4.906567 1.911132 3.876067
v 4.906567 1.913132 3.874067
v 5.152966 1.915132 2.546165
v 5.154965 1.913132 2.544165
v 5.156965 1.911132 2.546165
v 5.154965 1.913132 2.548165
v 5.154965 1.911132 3.876067
v 5.154965 1.913132 3.874067
v 5.926334 1.911132 2.546165
v 5.928334 1.911132 2.548165
v 5.926334 1.913132 2.548165
v 5.926334 1.911132 3.876067
v 5.926334 1.913132 3.874067
v 5.928334 1.911132 3.874067
v 5.926334 0.073317 3.876068
v 5.928334 0.073317 3.874068
v -5.730590 1.911132 2.546165
v -5.730590 1.913132 2.548165
v -5.732590 1.911345 2.546583
v -5.732590 0.073316 2.653360
v -5.734590 0.073316 2.653838
v -5.732590 1.911383 3.873632
v -5.730590 1.913132 3.874067
v -5.730590 1.911132 3.876067
v -5.734590 0.073316 3.234738
v -5.732590 0.073316 3.237157
v -7.072526 1.450644 2.653838
v -7.072526 1.452644 2.655838
v -7.074526 1.450644 2.655838
v -7.072526 1.450644 3.234738
v -7.074526 1.450644 3.232738
v -7.072526 1.452644 3.232738
v -7.072526 0.073316 2.653838
v -7.074526 0.073316 2.655838
v -7.074526 0.073316 3.232738
v -7.072526 0.073316 3.234738
v -4.959221 2.488816 2.514728
v -4.957221 2.490816 2.514728
v -4.710822 2.490816 2.512728
v -4.710822 2.492816 2.514728
v 5.152966 2.490816 2.514728
v 5.154965 2.488816 2.514728
v 4.906567 2.490816 2.512728
v 4.906567 2.492816 2.514728
v -4.936037 2.490816 2.544165
v -4.934037 2.492816 2.544165
v -4.932036 2.488816 2.546165
v -4.934037 2.490816 1.422455
v -4.934037 2.488816 1.420455
v -4.934037 1.911132 3.876067
v -4.934037 1.913132 3.874067
v -4.934037 1.913132 2.548165
v -4.934037 1.915132 2.546165
v -4.932036 2.492816 2.514728
v -4.934037 2.492816 2.516728
v -4.936037 2.490816 2.512728
v -2.294888 2.488816 2.546165
v -2.292887 2.492816 2.544165
v -2.290888 2.490816 2.544165
v -2.292887 1.915132 2.546165
v -2.292887 1.913132 2.548165
v -2.292887 1.913132 3.874067
v -2.292887 1.911132 3.876067
v -2.294888 2.492816 2.514728
v -2.290888 2.490816 2.512728
v -2.292887 2.492816 2.516728
v -2.023466 2.492816 2.516728
v -2.025466 2.490816 2.512728
v -2.021466 2.492816 2.514728
v -2.025466 2.490816 2.544165
v -2.023466 2.492816 2.544165
v -2.021466 2.488816 2.546165
v -2.023466 1.915132 2.546165
v -2.023466 1.913132 2.548165
v -2.023466 1.913132 3.874067
v -2.023466 1.911132 3.876067
v -0.084107 2.492816 2.514728
v -0.080106 2.490816 2.512728
v -0.082106 2.492816 2.516728
v -0.084107 2.488816 2.546165
v -0.082106 2.492816 2.544165
v -0.080106 2.490816 2.544165
v -0.082106 1.915132 2.546165
v -0.082106 1.913132 2.548165
v -0.082106 1.913132 3.874067
v -0.082106 1.911132 3.876067
v 0.329901 2.492816 2.516728
v 0.327901 2.490816 2.512728
v 0.331900 2.492816 2.514728
v 0.327901 2.490816 2.544165
v 0.329901 2.492816 2.544165
v 0.331900 2.488816 2.546165
v 0.329901 1.915132 2.546165
v 0.329901 1.913132 2.548165
v 0.329901 1.913132 3.874067
v 0.329901 1.911132 3.876067
v 2.265429 2.492816 2.514728
v 2.269428 2.490816 2.512728
v 2.267429 2.492816 2.516728
v 2.265429 2.488816 2.546165
v 2.267429 2.492816 2.544165
v 2.269428 2.490816 2.544165
v 2.267429 1.915132 2.546165
v 2.267429 1.913132 2.548165
v 2.267429 1.913132 3.874067
v 2.267429 1.911132 3.876067
v 2.543071 2.492816 2.514728
v 2.541071 2.492816 2.516728
v 2.539071 2.490816 2.512728
v 2.539071 2.490816 2.544165
v 2.541071 2.492816 2.544165
v 2.543071 2.488816 2.546165
v 2.541071 1.915132 2.546165
v 2.541071 1.913132 2.548165
v 2.541071 1.913132 3.874067
v 2.541071 1.911132 3.876067
v 5.122252 2.488816 2.546165
v 5.124252 2.492816 2.544165
v 5.126252 2.490816 2.544165
v 5.124252 2.488816 1.420455
v 5.124252 2.490816 1.422455
v 5.124252 1.913132 3.874067
v 5.124252 1.911132 3.876067
v 5.124252 1.915132 2.546165
v 5.124252 1.913132 2.548165
v 5.124252 2.492816 2.516728
v 5.122252 2.492816 2.514728
v 5.126252 2.490816 2.512728
v -4.710822 2.526374 2.514728
v -4.710822 2.528374 2.516728
v -4.710822 2.526374 2.546165
v -4.710822 2.528374 2.544165
v 4.906567 2.526374 2.514728
v 4.906567 2.528374 2.516728
v 4.906567 2.528374 2.544165
v 4.906567 2.526374 2.546165
v -2.294888 2.526374 2.546165
v -2.294888 2.528374 2.544165
v -2.292887 2.526374 2.544165
v 2.543071 2.526374 2.514728
v 2.543071 2.528374 2.516728
v 2.541071 2.526374 2.516728
v -4.932036 2.526374 2.514728
v -4.932036 2.528374 2.516728
v -4.934037 2.526374 2.516728
v -4.932036 2.526374 2.546165
v -4.934037 2.526374 2.544165
v -4.932036 2.528374 2.544165
v -2.294888 2.526374 2.514728
v -2.292887 2.526374 2.516728
v -2.294888 2.528374 2.516728
v -0.084107 2.526374 2.546165
v -0.084107 2.528374 2.544165
v -0.082106 2.526374 2.544165
v -2.021466 2.526374 2.546165
v -2.023466 2.526374 2.544165
v -2.021466 2.528374 2.544165
v -2.023466 2.526374 2.516728
v -2.021466 2.526374 2.514728
v -2.021466 2.528374 2.516728
v -0.084107 2.526374 2.514728
v -0.082106 2.526374 2.516728
v -0.084107 2.528374 2.516728
v 2.265429 2.526374 2.546165
v 2.265429 2.528374 2.544165
v 2.267429 2.526374 2.544165
v 0.331900 2.526374 2.546165
v 0.329901 2.526374 2.544165
v 0.331900 2.528374 2.544165
v 0.329901 2.526374 2.516728
v 0.331900 2.526374 2.514728
v 0.331900 2.528374 2.516728
v 2.265429 2.526374 2.514728
v 2.267429 2.526374 2.516728
v 2.265429 2.528374 2.516728
v 2.543071 2.526374 2.546165
v 2.541071 2.526374 2.544165
v 2.543071 2.528374 2.544165
v 5.122252 2.526374 2.546165
v 5.122252 2.528374 2.544165
v 5.124252 2.526374 2.544165
v 5.124252 2.526374 2.516728
v 5.122252 2.528374 2.516728
v 5.122252 2.526374 2.514728
v -4.914621 2.566020 -2.476876
v -4.916621 2.564020 -2.476876
v -4.914621 2.564020 -2.478877
v -4.914621 2.564020 -2.409687
v -4.916621 2.564020 -2.411687
v -4.914621 2.566020 -2.411687
v -2.362337 2.564020 -2.478877
v -2.360337 2.564020 -2.476876
v -2.362337 2.566020 -2.476876
v -2.360337 2.564020 -2.411687
v -2.362337 2.564020 -2.409687
v -2.362337 2.566020 -2.411687
v -1.953828 2.564020 -2.476876
v -1.951828 2.564020 -2.478877
v -1.951828 2.566020 -2.476876
v -1.951828 2.564020 -2.409687
v -1.953828 2.564020 -2.411687
v -1.951828 2.566020 -2.411687
v -0.082106 2.564020 -2.476876
v -0.084107 2.566020 -2.476876
v -0.084107 2.564020 -2.478877
v -0.084107 2.564020 -2.409687
v -0.084107 2.566020 -2.411687
v -0.082106 2.564020 -2.411687
v 0.331900 2.564020 -2.478877
v 0.331900 2.566020 -2.476876
v 0.329901 2.564020 -2.476876
v 0.329901 2.564020 -2.411687
v 0.331900 2.566020 -2.411687
v 0.331900 2.564020 -2.409687
v 2.612350 2.564020 -2.411687
v 2.614350 2.566020 -2.411687
v 2.614350 2.564020 -2.409687
v 2.612350 2.564020 -2.476876
v 2.614350 2.564020 -2.478877
v 2.614350 2.566020 -2.476876
v 2.198352 2.564020 -2.476876
v 2.196352 2.566020 -2.476876
v 2.196352 2.564020 -2.478877
v 2.196352 2.564020 -2.409687
v 2.196352 2.566020 -2.411687
v 2.198352 2.564020 -2.411687
v -4.957221 2.490816 -2.409687
v -4.959221 2.488816 -2.409687
v -4.959221 2.488816 -2.478876
v -4.957221 2.490816 -2.478876
v -4.914621 2.492816 -2.409687
v -4.918621 2.490816 -2.407687
v -4.916621 2.492816 -2.411687
v -4.914621 2.492816 -2.478876
v -4.916621 2.492816 -2.476876
v -4.918621 2.490816 -2.480876
v 5.152966 2.490816 -2.478876
v 5.154965 2.488816 -2.478876
v 5.154965 2.488816 -2.409687
v 5.152966 2.490816 -2.409687
v 5.101512 2.492816 -2.409687
v 5.103512 2.492816 -2.411687
v 5.105512 2.490816 -2.407687
v 5.101512 2.492816 -2.478876
v 5.105512 2.490816 -2.480876
v 5.103512 2.492816 -2.476876
v -2.362337 2.492816 -2.409687
v -2.360337 2.492816 -2.411687
v -2.358337 2.490816 -2.407687
v -2.362337 2.492816 -2.478876
v -2.358337 2.490816 -2.480876
v -2.360337 2.492816 -2.476876
v -1.951828 2.492816 -2.409687
v -1.955828 2.490816 -2.407687
v -1.953828 2.492816 -2.411687
v -1.951828 2.492816 -2.478876
v -1.953828 2.492816 -2.476876
v -1.955828 2.490816 -2.480876
v -0.084107 2.492816 -2.409687
v -0.082106 2.492816 -2.411687
v -0.080106 2.490816 -2.407687
v -0.084107 2.492816 -2.478876
v -0.080106 2.490816 -2.480876
v -0.082106 2.492816 -2.476876
v 0.331900 2.492816 -2.409687
v 0.327901 2.490816 -2.407687
v 0.329901 2.492816 -2.411687
v 0.331900 2.492816 -2.478876
v 0.329901 2.492816 -2.476876
v 0.327901 2.490816 -2.480876
v 2.196352 2.492816 -2.409687
v 2.198352 2.492816 -2.411687
v 2.200352 2.490816 -2.407687
v 2.196352 2.492816 -2.478876
v 2.200352 2.490816 -2.480876
v 2.198352 2.492816 -2.476876
v 2.614350 2.492816 -2.478876
v 2.612350 2.492816 -2.476876
v 2.610350 2.490816 -2.480876
v 2.614350 2.492816 -2.409687
v 2.610350 2.490816 -2.407687
v 2.612350 2.492816 -2.411687
v 5.101512 2.564020 -2.409687
v 5.101512 2.566020 -2.411687
v 5.103512 2.564020 -2.411687
v 5.103512 2.564020 -2.476876
v 5.101512 2.566020 -2.476876
v 5.101512 2.564020 -2.478877
v -4.977910 2.347706 2.432638
v -4.977910 2.345706 2.434638
v -4.977910 2.345706 2.255618
v -4.977910 2.347706 2.257618
v -4.977910 2.060220 2.434638
v -4.977910 2.058220 2.432638
v -4.977910 2.058220 2.257618
v -4.977910 2.060220 2.255618
v 5.174817 2.345706 2.434638
v 5.174817 2.347706 2.432638
v 5.174817 2.347706 2.257618
v 5.174817 2.345706 2.255618
v 5.174817 2.058220 2.432638
v 5.174817 2.060220 2.434638
v 5.174817 2.060220 2.255618
v 5.174817 2.058220 2.257618
vn -0.0000 -1.0000 -0.0000
vn -0.0000 -1.0000 0.0001
vn -0.0000 1.0000 -0.0000
vn -1.0000 -0.0000 0.0001
vn -1.0000 -0.0000 -0.0000
vn -1.0000 -0.0000 -0.0001
vn -1.0000 0.0001 -0.0000
vn 0.0001 -0.0000 -1.0000
vn -0.0000 -0.0000 -1.0000
vn 0.0001 -0.0000 1.0000
vn -0.0000 -0.0000 1.0000
vn -0.0000 -0.0001 1.0000
vn 1.0000 0.0001 -0.0001
vn 1.0000 0.0001 -0.0000
vn 1.0000 -0.0001 0.0001
vn 1.0000 -0.0000 -0.0000
vn -0.0000 -1.0000 -0.0001
vn 0.0001 -1.0000 -0.0000
vn 1.0000 -0.0000 -0.0001
vn 1.0000 -0.0000 0.0001
vn -0.0000 1.0000 0.0001
vn -0.0000 1.0000 -0.0001
vn -0.0000 0.0001 1.0000
vn -1.0000 -0.0001 -0.0000
vn -1.0000 -0.0001 0.0001
vn 1.0000 -0.0001 -0.0000
vn 0.0001 1.0000 -0.0000
vn -0.0000 -0.0001 -1.0000
vn -0.7071 -0.0000 -0.7072
vn 0.0001 0.0001 -1.0000
vn -0.7071 -0.0000 0.7071
vn -0.0001 0.0001 1.0000
vn 0.7072 -0.0000 -0.7070
vn -0.0001 -0.0000 -1.0000
vn 0.7071 -0.0000 0.7071
vn -0.0000 0.0001 -1.0000
vn -0.0001 -0.0001 1.0000
vn 0.0001 -0.0001 1.0000
vn 0.0008 -1.0000 -0.0000
vn -0.0001 -1.0000 -0.0000
vn -0.0000 0.0002 1.0000
vn -0.0001 0.0001 -1.0000
vn -0.0001 -0.0000 1.0000
vn -0.0014 -0.0000 -1.0000
vn -0.0014 -0.0001 -1.0000
vn -0.0001 1.0000 -0.0000
vt 0.045284 0.129728
vt 0.045284 0.587354
vt 0.044635 0.588004
vt 0.044635 0.129078
vt 0.037439 0.621519
vt 0.037583 0.679055
vt 0.000247 0.679057
vt 0.000244 0.621417
vt 0.004379 0.800206
vt 0.004386 0.994881
vt 0.001335 0.994883
vt 0.001328 0.800206
vt 0.336525 0.128030
vt 0.336497 0.621282
vt 0.235240 0.621382
vt 0.235268 0.127946
vt 0.048602 0.129920
vt 0.048574 0.586784
vt 0.045709 0.586789
vt 0.045741 0.129920
vt 0.038871 0.587575
vt 0.038899 0.130721
vt 0.041763 0.130716
vt 0.041731 0.587575
vt 0.037657 0.128080
vt 0.000467 0.128182
vt 0.009401 0.800036
vt 0.009408 0.994713
vt 0.006357 0.994716
vt 0.006351 0.800036
vt 0.235154 0.678899
vt 0.042188 0.587767
vt 0.042188 0.130152
vt 0.042838 0.129502
vt 0.042838 0.588416
vt 0.037704 0.000361
vt 0.000396 0.000381
vt 0.235098 0.000259
vt 0.336525 0.678851
vt 0.024860 0.799138
vt 0.519515 0.799151
vt 0.519492 0.799674
vt 0.024860 0.799635
vt 0.520211 0.800052
vt 0.520221 0.998751
vt 0.519722 0.998742
vt 0.519714 0.800052
vt 0.024196 0.998841
vt 0.024185 0.800143
vt 0.024684 0.800152
vt 0.024692 0.998841
vt 0.519546 0.999756
vt 0.024891 0.999743
vt 0.024914 0.999220
vt 0.519546 0.999259
vt 0.024860 0.800129
vt 0.519515 0.800053
vt 0.519546 0.998765
vt 0.024891 0.998841
vt 0.001133 0.800001
vt 0.001133 0.995130
vt 0.000441 0.995823
vt 0.000441 0.799308
vt 0.006156 0.799831
vt 0.006156 0.994963
vt 0.005463 0.995655
vt 0.005463 0.799138
vt 0.234976 0.128491
vt 0.234854 0.128226
vt 0.037999 0.128356
vt 0.038044 0.128186
vt 0.234950 0.621004
vt 0.234740 0.621297
vt 0.037684 0.620935
vt 0.037917 0.621229
vt 0.045830 0.587022
vt 0.006409 0.994865
vt 0.001386 0.995032
vt 0.041643 0.130483
vt 0.000244 0.799308
vt 0.000342 0.799138
vt 0.005365 0.995826
vt 0.005267 0.995655
vt 0.000343 0.995993
vt 0.000244 0.995823
vt 0.043297 0.129501
vt 0.043067 0.129104
vt 0.519743 0.799765
vt 0.024721 0.799996
vt 0.519685 0.998897
vt 0.024663 0.999129
vt 0.038894 0.130591
vt 0.004386 0.995023
vt 0.009409 0.994856
vt 0.048579 0.586914
vt 0.044176 0.588004
vt 0.044176 0.129078
vt 0.043297 0.588416
vt 0.005267 0.799138
vt 0.519700 0.799138
vt 0.024188 0.799986
vt 0.520218 0.998908
vt 0.024706 0.999756
vt 0.336507 0.000244
vt 0.932661 0.778758
vt 0.932661 0.653250
vt 0.950935 0.653250
vt 0.950935 0.778758
vt 0.899163 0.526862
vt 0.899163 0.652370
vt 0.880889 0.652370
vt 0.880889 0.526862
vt 0.951081 0.653250
vt 0.984286 0.653250
vt 0.984286 0.778758
vt 0.951081 0.778758
vt 0.932514 0.653250
vt 0.932514 0.778758
vt 0.899310 0.778758
vt 0.899310 0.653250
vt 0.932661 0.652370
vt 0.932661 0.526862
vt 0.950935 0.526862
vt 0.950935 0.652370
vt 0.899163 0.400474
vt 0.899163 0.525983
vt 0.880889 0.525983
vt 0.880889 0.400474
vt 0.951081 0.526862
vt 0.984286 0.526862
vt 0.984286 0.652371
vt 0.951081 0.652370
vt 0.932514 0.526862
vt 0.932514 0.652370
vt 0.899310 0.652370
vt 0.899310 0.526862
vt 0.932661 0.525983
vt 0.932661 0.400474
vt 0.950935 0.400474
vt 0.950935 0.525983
vt 0.786299 0.771819
vt 0.786310 0.756535
vt 0.798243 0.749184
vt 0.798203 0.873748
vt 0.951081 0.400474
vt 0.984286 0.400474
vt 0.984286 0.525983
vt 0.951081 0.525983
vt 0.932514 0.400474
vt 0.932514 0.525983
vt 0.899310 0.525983
vt 0.899310 0.400474
vt 0.071721 0.563083
vt 0.071721 0.578028
vt 0.053448 0.578028
vt 0.053448 0.563083
vt 0.734507 0.771808
vt 0.734515 0.756524
vt 0.746447 0.749170
vt 0.746427 0.873735
vt 0.776949 0.771817
vt 0.798202 0.874635
vt 0.764995 0.874625
vt 0.764995 0.873738
vt 0.776946 0.756530
vt 0.765016 0.749173
vt 0.798349 0.874635
vt 0.798390 0.749120
vt 0.816664 0.749126
vt 0.816624 0.874640
vt 0.765014 0.749109
vt 0.798244 0.749120
vt 0.764868 0.749110
vt 0.764848 0.874625
vt 0.746573 0.874622
vt 0.746594 0.749107
vt 0.725151 0.756520
vt 0.725156 0.771807
vt 0.713219 0.873730
vt 0.713219 0.749166
vt 0.746427 0.874622
vt 0.713219 0.874617
vt 0.071721 0.529507
vt 0.071721 0.538602
vt 0.053448 0.538602
vt 0.053448 0.529507
vt 0.713218 0.749101
vt 0.746448 0.749106
vt 0.071721 0.553841
vt 0.071721 0.562936
vt 0.053448 0.562936
vt 0.053448 0.553841
vt 0.071721 0.538749
vt 0.071721 0.553694
vt 0.053448 0.553694
vt 0.053448 0.538749
vt 0.713072 0.749102
vt 0.713072 0.874617
vt 0.777094 0.756593
vt 0.777003 0.756677
vt 0.786162 0.756599
vt 0.786252 0.756684
vt 0.777094 0.771668
vt 0.777009 0.771568
vt 0.786157 0.771670
vt 0.786236 0.771570
vt 0.734367 0.756588
vt 0.734458 0.756673
vt 0.725299 0.756583
vt 0.725208 0.756667
vt 0.734364 0.771658
vt 0.734444 0.771559
vt 0.725302 0.771658
vt 0.725217 0.771558
vt 0.899163 0.778758
vt 0.899163 0.653250
vt 0.984433 0.653250
vt 0.984433 0.778758
vt 0.984433 0.526862
vt 0.984433 0.652371
vt 0.984433 0.400474
vt 0.984433 0.525983
vt 0.053448 0.529360
vt 0.071721 0.529360
vt 0.880889 0.778758
vt 0.880889 0.653250
vt 0.272095 0.706207
vt 0.794296 0.706207
vt 0.794296 0.721789
vt 0.272095 0.721789
vt 0.794296 0.722311
vt 0.794296 0.748222
vt 0.272095 0.748222
vt 0.272095 0.722311
vt 0.272095 0.705685
vt 0.794296 0.705685
vt 0.272095 0.679775
vt 0.794296 0.679775
vt 0.205929 0.129103
vt 0.205929 0.358662
vt 0.194803 0.358662
vt 0.194803 0.129103
vt 0.551489 0.978659
vt 0.551489 0.749101
vt 0.570295 0.749101
vt 0.570295 0.978659
vt 0.194574 0.358662
vt 0.175768 0.358662
vt 0.175768 0.129103
vt 0.194574 0.129103
vt 0.852101 0.991720
vt 0.836237 0.991720
vt 0.836237 0.496422
vt 0.852101 0.496422
vt 0.551260 0.749101
vt 0.551260 0.978659
vt 0.540134 0.978659
vt 0.540134 0.749101
vt 0.539905 0.978659
vt 0.521099 0.978659
vt 0.521099 0.749101
vt 0.539905 0.749101
vt 0.194803 0.589099
vt 0.194803 0.359541
vt 0.205929 0.359541
vt 0.205929 0.589099
vt 0.206158 0.359541
vt 0.224964 0.359541
vt 0.224964 0.589099
vt 0.206158 0.589099
vt 0.835357 0.624234
vt 0.340058 0.624235
vt 0.340058 0.608370
vt 0.835357 0.608370
vt 0.340058 0.624730
vt 0.835357 0.624730
vt 0.835357 0.635784
vt 0.340058 0.635785
vt 0.835357 0.636280
vt 0.835357 0.652144
vt 0.340058 0.652144
vt 0.340058 0.636280
vt 0.863651 0.496422
vt 0.863651 0.991720
vt 0.852596 0.991720
vt 0.852596 0.496422
vt 0.827718 0.000244
vt 0.843583 0.000244
vt 0.843583 0.495543
vt 0.827718 0.495543
vt 0.816168 0.495543
vt 0.816168 0.000244
vt 0.827223 0.000244
vt 0.827223 0.495543
vt 0.864146 0.991720
vt 0.864146 0.496422
vt 0.880010 0.496422
vt 0.880010 0.991720
vt 0.194574 0.359541
vt 0.194574 0.589099
vt 0.175768 0.589099
vt 0.175768 0.359541
vt 0.815673 0.000245
vt 0.815673 0.495543
vt 0.799809 0.495543
vt 0.799809 0.000245
vt 0.206158 0.129103
vt 0.206158 0.358662
vt 0.224964 0.129103
vt 0.224964 0.358662
vt 0.535064 0.040873
vt 0.592219 0.040975
vt 0.592220 0.042187
vt 0.535293 0.042183
vt 0.049481 0.133050
vt 0.049481 0.129101
vt 0.145001 0.129101
vt 0.145001 0.133050
vt 0.740039 0.054281
vt 0.791239 0.043493
vt 0.790955 0.176483
vt 0.739672 0.176297
vt 0.535713 0.053724
vt 0.592236 0.053947
vt 0.591969 0.179528
vt 0.535092 0.179462
vt 0.145001 0.359799
vt 0.145001 0.348314
vt 0.174889 0.348314
vt 0.174889 0.359799
vt 0.145001 0.200880
vt 0.174889 0.200880
vt 0.174889 0.348167
vt 0.145001 0.348167
vt 0.794769 0.176486
vt 0.798615 0.176389
vt 0.798581 0.197489
vt 0.794736 0.197380
vt 0.121186 0.465129
vt 0.049481 0.465124
vt 0.049481 0.459584
vt 0.144908 0.459583
vt 0.874453 0.330758
vt 0.969866 0.330758
vt 0.969866 0.399595
vt 0.874453 0.399595
vt 0.433188 0.554182
vt 0.433175 0.565508
vt 0.337502 0.565430
vt 0.337545 0.554059
vt 0.502247 0.053622
vt 0.502645 0.179409
vt 0.433617 0.179549
vt 0.433301 0.053775
vt 0.049481 0.200880
vt 0.049481 0.348167
vt 0.145001 0.200733
vt 0.145001 0.188044
vt 0.174889 0.188044
vt 0.174889 0.200733
vt 0.049481 0.359799
vt 0.049481 0.348314
vt 0.145001 0.187897
vt 0.145001 0.136642
vt 0.174889 0.136642
vt 0.174889 0.187897
vt 0.049481 0.361002
vt 0.145001 0.361002
vt 0.502246 0.554248
vt 0.502287 0.565573
vt 0.433320 0.565504
vt 0.433326 0.554161
vt 0.502298 0.567173
vt 0.502272 0.607305
vt 0.433290 0.607262
vt 0.433321 0.567111
vt 0.712177 0.918303
vt 0.640646 0.918287
vt 0.640661 0.848802
vt 0.712193 0.848818
vt 0.433121 0.040833
vt 0.337543 0.041064
vt 0.337436 0.000946
vt 0.433019 0.000691
vt 0.049481 0.419386
vt 0.049481 0.417858
vt 0.145001 0.417858
vt 0.145000 0.419386
vt 0.433127 0.042152
vt 0.337555 0.042372
vt 0.502293 0.041980
vt 0.433272 0.042152
vt 0.433264 0.040839
vt 0.502316 0.040640
vt 0.969866 0.290522
vt 0.874349 0.290522
vt 0.874349 0.288993
vt 0.969866 0.288994
vt 0.534940 0.566970
vt 0.535187 0.565379
vt 0.592106 0.565422
vt 0.592105 0.566924
vt 0.874349 0.004193
vt 0.844462 0.004193
vt 0.844462 0.000244
vt 0.874349 0.000244
vt 0.874349 0.071874
vt 0.844462 0.071874
vt 0.844462 0.059186
vt 0.874349 0.059186
vt 0.535058 0.431173
vt 0.591925 0.431124
vt 0.592130 0.553951
vt 0.535628 0.554144
vt 0.739606 0.434622
vt 0.790882 0.434462
vt 0.791090 0.564046
vt 0.739905 0.553693
vt 0.874349 0.230649
vt 0.844462 0.230649
vt 0.844462 0.219451
vt 0.874349 0.219451
vt 0.874349 0.059039
vt 0.844462 0.059039
vt 0.844462 0.007785
vt 0.874349 0.007785
vt 0.502610 0.431225
vt 0.433584 0.431095
vt 0.969866 0.072021
vt 0.969866 0.219304
vt 0.874349 0.219304
vt 0.874349 0.072021
vt 0.969866 0.059039
vt 0.969866 0.007785
vt 0.969866 0.230649
vt 0.969866 0.219451
vt 0.739927 0.566593
vt 0.791200 0.566517
vt 0.969866 0.071874
vt 0.969866 0.059186
vt 0.640720 0.818734
vt 0.712193 0.818734
vt 0.712193 0.848671
vt 0.640719 0.848670
vt 0.433177 0.567106
vt 0.433176 0.607270
vt 0.337449 0.607294
vt 0.337473 0.567071
vt 0.532868 0.566871
vt 0.532955 0.565272
vt 0.532460 0.565015
vt 0.502452 0.565575
vt 0.502327 0.554210
vt 0.532027 0.554143
vt 0.532053 0.053723
vt 0.532752 0.179179
vt 0.502821 0.179410
vt 0.502332 0.053653
vt 0.640647 0.749117
vt 0.712178 0.749101
vt 0.712193 0.818587
vt 0.640662 0.818602
vt 0.049482 0.495436
vt 0.121184 0.495437
vt 0.144909 0.528480
vt 0.049482 0.528481
vt 0.571174 0.848670
vt 0.571174 0.818733
vt 0.640604 0.818734
vt 0.640604 0.848670
vt 0.535180 0.042647
vt 0.535851 0.053660
vt 0.534436 0.053655
vt 0.534164 0.043064
vt 0.969866 0.290669
vt 0.969866 0.330612
vt 0.874453 0.330612
vt 0.874453 0.290669
vt 0.534955 0.315943
vt 0.591827 0.316052
vt 0.591891 0.416878
vt 0.535004 0.417086
vt 0.794815 0.566513
vt 0.794918 0.564039
vt 0.798768 0.563930
vt 0.798775 0.566503
vt 0.532884 0.040972
vt 0.532969 0.042288
vt 0.534957 0.294685
vt 0.591830 0.294593
vt 0.533155 0.042441
vt 0.534763 0.042414
vt 0.534289 0.043190
vt 0.533646 0.043179
vt 0.794969 0.041489
vt 0.798928 0.041502
vt 0.798921 0.043614
vt 0.795071 0.043502
vt 0.532676 0.041040
vt 0.532483 0.042550
vt 0.502462 0.041977
vt 0.502475 0.040742
vt 0.433129 0.000671
vt 0.502207 0.000411
vt 0.049481 0.200733
vt 0.049481 0.188044
vt 0.174889 0.417858
vt 0.174889 0.419386
vt 0.049481 0.361149
vt 0.145001 0.361149
vt 0.174889 0.361149
vt 0.532778 0.193587
vt 0.502844 0.193474
vt 0.433161 0.053769
vt 0.337591 0.053977
vt 0.433457 0.179536
vt 0.337869 0.179698
vt 0.844462 0.219304
vt 0.844462 0.072021
vt 0.740067 0.041379
vt 0.791349 0.041482
vt 0.534724 0.179303
vt 0.533390 0.179312
vt 0.533806 0.178753
vt 0.534307 0.178743
vt 0.591932 0.193558
vt 0.535037 0.193333
vt 0.433482 0.193565
vt 0.337891 0.193664
vt 0.533234 0.179482
vt 0.533230 0.193299
vt 0.533389 0.193464
vt 0.534689 0.193488
vt 0.534282 0.194030
vt 0.533799 0.194015
vt 0.739644 0.197401
vt 0.798484 0.294684
vt 0.794640 0.294785
vt 0.533184 0.294713
vt 0.533181 0.315915
vt 0.433538 0.294578
vt 0.337944 0.294593
vt 0.502680 0.193474
vt 0.502718 0.294571
vt 0.433688 0.294585
vt 0.433635 0.193553
vt 0.535075 0.193661
vt 0.535008 0.294361
vt 0.534061 0.294132
vt 0.534118 0.193893
vt 0.739552 0.294659
vt 0.798479 0.316060
vt 0.794634 0.315956
vt 0.534624 0.294529
vt 0.533347 0.294550
vt 0.533757 0.294006
vt 0.534228 0.293995
vt 0.533344 0.316079
vt 0.534621 0.316099
vt 0.534225 0.316634
vt 0.533755 0.316623
vt 0.433535 0.316030
vt 0.337931 0.315982
vt 0.502714 0.316053
vt 0.433683 0.316023
vt 0.532753 0.294423
vt 0.532749 0.316206
vt 0.502859 0.316060
vt 0.502861 0.294563
vt 0.739546 0.316050
vt 0.798513 0.413075
vt 0.794669 0.413182
vt 0.533767 0.043028
vt 0.533573 0.053690
vt 0.534657 0.416932
vt 0.533356 0.416957
vt 0.533766 0.416406
vt 0.534249 0.416390
vt 0.433449 0.416857
vt 0.337825 0.416746
vt 0.502649 0.416947
vt 0.433603 0.416865
vt 0.535005 0.316267
vt 0.535042 0.416759
vt 0.534085 0.416527
vt 0.534059 0.316497
vt 0.739589 0.413131
vt 0.798539 0.434556
vt 0.794694 0.434457
vt 0.532745 0.416835
vt 0.532716 0.431458
vt 0.502790 0.431225
vt 0.502814 0.416944
vt 0.533354 0.431324
vt 0.534690 0.431333
vt 0.534273 0.431894
vt 0.533770 0.431884
vt 0.433424 0.431102
vt 0.337785 0.430957
vt 0.533197 0.417121
vt 0.533199 0.431154
vt 0.000244 0.722938
vt 0.000244 0.719433
vt 0.004073 0.719433
vt 0.004073 0.722938
vt 0.532661 0.566804
vt 0.502460 0.567084
vt 0.874349 0.232286
vt 0.969866 0.232286
vt 0.844462 0.290522
vt 0.844462 0.288993
vt 0.969866 0.232139
vt 0.874349 0.232139
vt 0.844462 0.232286
vt 0.533668 0.193919
vt 0.534410 0.193934
vt 0.534358 0.294092
vt 0.533626 0.294104
vt 0.533507 0.564457
vt 0.533408 0.554210
vt 0.534498 0.554225
vt 0.534312 0.564446
vt 0.533641 0.431788
vt 0.534399 0.431798
vt 0.533552 0.043115
vt 0.534373 0.043126
vt 0.534555 0.053647
vt 0.533454 0.053660
vt 0.533623 0.316525
vt 0.534356 0.316537
vt 0.534377 0.416487
vt 0.533635 0.416502
vt 0.147435 0.683699
vt 0.147436 0.687205
vt 0.143606 0.687205
vt 0.143606 0.683699
vt 0.533969 0.193863
vt 0.533931 0.294157
vt 0.533933 0.431734
vt 0.533536 0.554179
vt 0.534434 0.178839
vt 0.533677 0.178849
vt 0.533928 0.316473
vt 0.533935 0.416558
vt 0.534686 0.565145
vt 0.533126 0.565117
vt 0.533602 0.564393
vt 0.534226 0.564383
vt 0.535773 0.554211
vt 0.535097 0.564920
vt 0.534098 0.564506
vt 0.534371 0.554216
vt 0.535115 0.179129
vt 0.534146 0.178883
vt 0.533727 0.564541
vt 0.535081 0.431507
vt 0.534112 0.431754
vt 0.533969 0.178903
vt 0.790861 0.413188
vt 0.790821 0.315953
vt 0.790829 0.294783
vt 0.790922 0.197372
vt 0.969866 0.004193
vt 0.969866 0.000244
vt 0.844462 0.232139
vt 0.049481 0.187897
vt 0.049481 0.136642
vt 0.174889 0.361002
vt 0.174889 0.129101
vt 0.174889 0.133050
vt 0.004203 0.715670
vt 0.101209 0.715670
vt 0.101206 0.719374
vt 0.004205 0.719374
vt 0.137591 0.695611
vt 0.137591 0.699118
vt 0.133760 0.699118
vt 0.133760 0.695611
vt 0.000244 0.699117
vt 0.000245 0.695610
vt 0.004075 0.695611
vt 0.004075 0.699118
vt 0.000244 0.711028
vt 0.000244 0.707522
vt 0.004073 0.707523
vt 0.004073 0.711028
vt 0.010656 0.679936
vt 0.143476 0.679936
vt 0.143474 0.683640
vt 0.010659 0.683640
vt 0.133630 0.702881
vt 0.004205 0.702881
vt 0.004207 0.699176
vt 0.133628 0.699176
vt 0.143477 0.690969
vt 0.010657 0.690969
vt 0.010659 0.687264
vt 0.143474 0.687264
vt 0.004208 0.695669
vt 0.133627 0.695669
vt 0.133627 0.699060
vt 0.004208 0.699060
vt 0.143473 0.687147
vt 0.010660 0.687147
vt 0.010660 0.683757
vt 0.143473 0.683757
vt 0.101377 0.714791
vt 0.004202 0.714791
vt 0.004205 0.711087
vt 0.101375 0.711087
vt 0.006697 0.687205
vt 0.006697 0.683699
vt 0.010527 0.683699
vt 0.010527 0.687205
vt 0.105167 0.719434
vt 0.105167 0.722939
vt 0.101338 0.722938
vt 0.101339 0.719433
vt 0.004206 0.707580
vt 0.101374 0.707580
vt 0.101374 0.710971
vt 0.004206 0.710970
vt 0.101208 0.726701
vt 0.004202 0.726701
vt 0.004205 0.722997
vt 0.101206 0.722997
vt 0.004205 0.691848
vt 0.133631 0.691848
vt 0.133628 0.695552
vt 0.004207 0.695552
vt 0.105338 0.707523
vt 0.105337 0.711029
vt 0.101507 0.711029
vt 0.101507 0.707523
vt 0.004206 0.719491
vt 0.101206 0.719491
vt 0.101205 0.722881
vt 0.004206 0.722881
vt 0.004203 0.703760
vt 0.101377 0.703760
vt 0.101375 0.707464
vt 0.004205 0.707464
vt 0.532758 0.040827
vt 0.592361 0.040950
vt 0.592244 0.040834
vt 0.739821 0.054152
vt 0.739911 0.054063
vt 0.739927 0.041354
vt 0.740043 0.041238
vt 0.592365 0.053729
vt 0.592455 0.053818
vt 0.739777 0.553911
vt 0.739688 0.553822
vt 0.502409 0.040531
vt 0.502448 0.040601
vt 0.120982 0.465209
vt 0.121073 0.465273
vt 0.120978 0.495290
vt 0.121064 0.495198
vt 0.532743 0.567013
vt 0.592246 0.566948
vt 0.592130 0.567065
vt 0.739902 0.566733
vt 0.739787 0.566618
vt 0.592349 0.554080
vt 0.592259 0.554170
vt 0.502428 0.567222
vt 0.502387 0.567284
vt 0.502413 0.607330
vt 0.502297 0.607446
vt 0.433235 0.607397
vt 0.502365 0.000384
vt 0.502311 0.000245
vt 0.433087 0.000544
vt 0.791362 0.043716
vt 0.791460 0.043622
vt 0.794947 0.043724
vt 0.794850 0.043629
vt 0.791212 0.563823
vt 0.791310 0.563918
vt 0.794795 0.563817
vt 0.794698 0.563912
vt 0.791071 0.176260
vt 0.791176 0.176354
vt 0.794650 0.176257
vt 0.794547 0.176362
vt 0.791040 0.197595
vt 0.791140 0.197501
vt 0.794617 0.197601
vt 0.794518 0.197507
vt 0.790949 0.294559
vt 0.791048 0.294654
vt 0.794517 0.294566
vt 0.794424 0.294661
vt 0.790940 0.316177
vt 0.791039 0.316082
vt 0.794516 0.316178
vt 0.794417 0.316084
vt 0.790984 0.412966
vt 0.791078 0.413060
vt 0.794545 0.412962
vt 0.794451 0.413057
vt 0.794578 0.434680
vt 0.794474 0.434585
vt 0.791002 0.434691
vt 0.791104 0.434587
vt 0.535056 0.040689
vt 0.592369 0.042186
vt 0.049481 0.459477
vt 0.144897 0.459477
vt 0.010507 0.679936
vt 0.337436 0.000783
vt 0.144897 0.419533
vt 0.049481 0.419533
vt 0.004054 0.703761
vt 0.534932 0.567149
vt 0.143626 0.679936
vt 0.592255 0.565423
vt 0.133780 0.702880
vt 0.337436 0.607492
vt 0.101527 0.703761
vt 0.049481 0.465231
vt 0.049482 0.495273
vt 0.571174 0.848817
vt 0.571175 0.818586
vt 0.004052 0.726700
vt 0.004052 0.714790
vt 0.010507 0.690968
vt 0.143626 0.690968
vt 0.101359 0.715671
vt 0.101527 0.714790
vt 0.004054 0.715671
vt 0.133780 0.691849
vt 0.004055 0.702880
vt 0.004056 0.691849
vt 0.101358 0.726700
vt 0.794816 0.566661
vt 0.791200 0.566665
vt 0.791350 0.041334
vt 0.794970 0.041341
vt 0.798928 0.041355
vt 0.798775 0.566650
vt 0.000244 0.773161
vt 0.519248 0.773161
vt 0.519248 0.758567
vt 0.000244 0.758567
vt 0.000245 0.782627
vt 0.519249 0.782627
vt 0.519249 0.773680
vt 0.000245 0.773680
vt 0.000245 0.797740
vt 0.519249 0.797740
vt 0.519249 0.783146
vt 0.000245 0.783146
vt 0.519249 0.798259
vt 0.000245 0.798259
vt 0.000244 0.758048
vt 0.519248 0.758048
vt 0.519248 0.749101
vt 0.000244 0.749101
s 1
usemtl Concrete_1
f 28/1/1 27/2/1 37/3/2 42/4/1
f 24/5/3 7/6/3 4/7/3 12/8/3
f 21/9/4 23/10/5 32/11/6 26/12/7
f 9/13/3 11/14/3 20/15/3 15/16/3
f 13/17/8 19/18/9 25/19/9 30/20/8
f 22/21/10 16/22/11 34/23/12 33/24/11
f 17/25/3 24/5/3 12/8/3 10/26/3
f 18/27/13 14/28/14 29/29/15 35/30/16
f 20/15/3 6/31/3 7/6/3 24/5/3
f 31/32/1 36/33/1 47/34/17 45/35/18
f 8/36/3 17/25/3 10/26/3 3/37/3
f 5/38/3 15/16/3 17/25/3 8/36/3
f 11/14/3 2/39/3 6/31/3 20/15/3
f 40/40/9 39/41/9 49/42/9 52/43/9
f 38/44/5 44/45/6 56/46/5 50/47/4
f 48/48/19 41/49/20 54/50/16 59/51/19
f 43/52/11 46/53/11 58/54/11 57/55/11
f 53/56/21 51/57/3 55/58/22 60/59/22
f 27/60/1 31/61/1 45/62/18 37/63/2
f 36/64/1 28/65/1 42/66/1 47/67/17
f 13/68/8 14/69/14 15/16/3
f 16/70/11 17/25/3 18/71/13
f 19/72/9 20/15/3 21/73/4
f 22/74/10 23/75/5 24/5/3
f 25/19/9 26/76/7 27/2/1
f 28/65/1 29/29/15 30/77/8
f 31/61/1 32/11/6 33/78/11
f 34/23/12 35/79/16 36/33/1
f 37/63/2 38/80/5 39/81/9
f 40/82/9 41/83/20 42/66/1
f 43/84/11 44/85/6 45/62/18
f 46/86/11 47/34/17 48/87/19
f 49/42/9 50/88/4 51/57/3
f 52/89/9 53/56/21 54/50/16
f 55/58/22 56/46/5 57/90/11
f 58/54/11 59/91/19 60/59/22
f 19/72/9 13/68/8 15/16/3 20/15/3
f 24/5/3 17/25/3 16/70/11 22/74/10
f 14/69/14 18/71/13 17/25/3 15/16/3
f 20/15/3 24/5/3 23/75/5 21/73/4
f 27/2/1 28/1/1 30/20/8 25/19/9
f 33/24/11 34/23/12 36/33/1 31/32/1
f 28/65/1 36/64/1 35/30/16 29/29/15
f 26/12/7 32/11/6 31/61/1 27/60/1
f 18/92/13 35/79/16 34/23/12 16/22/11
f 32/11/6 23/10/5 22/93/10 33/78/11
f 13/94/8 30/77/8 29/29/15 14/28/14
f 21/95/4 26/76/7 25/19/9 19/18/9
f 39/96/9 40/97/9 42/4/1 37/3/2
f 45/35/18 47/34/17 46/86/11 43/98/11
f 41/83/20 48/99/19 47/67/17 42/66/1
f 37/63/2 45/62/18 44/85/6 38/80/5
f 51/57/3 53/56/21 52/43/9 49/42/9
f 57/55/11 58/54/11 60/59/22 55/58/22
f 53/56/21 60/59/22 59/51/19 54/50/16
f 50/47/4 56/46/5 55/58/22 51/57/3
f 38/100/5 50/88/4 49/42/9 39/41/9
f 54/50/16 41/49/20 40/101/9 52/89/9
f 43/102/11 57/90/11 56/46/5 44/45/6
f 48/103/19 59/91/19 58/54/11 46/53/11
f 1/104/3 9/13/3 15/16/3 5/38/3
f 68/105/11 65/106/11 76/107/11 69/108/11
f 78/109/9 79/110/9 88/111/9 89/112/9
f 75/113/16 74/114/16 71/115/16 70/116/16
f 66/117/5 67/118/5 64/119/5 61/120/5
f 84/121/11 81/122/11 92/123/23 85/124/11
f 94/125/9 95/126/9 104/127/9 105/128/9
f 91/129/16 90/130/16 87/131/16 86/132/16
f 82/133/4 83/134/4 80/135/24 77/136/5
f 100/137/11 97/138/11 108/139/23 101/140/11
f 144/141/7 137/142/4 113/143/6 109/144/6
f 107/145/16 106/146/16 103/147/16 102/148/16
f 98/149/7 99/150/5 96/151/5 93/152/5
f 156/153/10 149/154/12 138/155/11 143/156/11
f 153/157/16 146/158/16 122/159/16 130/160/16
f 140/161/5 144/141/7 109/144/6 111/162/5 117/163/7 116/164/4
f 135/165/24 140/161/5 116/164/4 118/166/25
f 110/167/9 112/168/9 125/169/9 127/170/9
f 137/142/4 135/165/24 118/166/25 120/171/5 114/172/5 113/143/6
f 119/173/11 115/174/11 131/175/11 121/176/11
f 150/177/26 155/178/16 128/179/16 124/180/16
f 155/178/16 153/157/16 130/160/16 132/181/16 129/182/16 128/179/16
f 148/183/1 145/184/1 133/185/1 136/186/1
f 146/158/16 150/177/26 124/180/16 126/187/16 123/188/16 122/159/16
f 151/189/3 154/190/3 142/191/22 139/192/27
f 147/193/28 152/194/8 141/195/9 134/196/9
f 109/144/6 110/167/29 111/162/5
f 112/168/30 113/143/6 114/172/5
f 115/174/10 116/164/4 117/163/7
f 118/166/25 119/173/31 120/171/5
f 121/176/32 122/159/16 123/188/16
f 124/180/16 125/197/33 126/187/16
f 127/198/34 128/179/16 129/182/16
f 130/160/16 131/175/35 132/181/16
f 133/199/1 134/200/9 135/165/24
f 136/201/1 137/142/4 138/202/11
f 139/203/27 140/161/5 141/204/9
f 142/205/22 143/206/11 144/141/7
f 145/207/1 146/158/16 147/208/28
f 148/209/1 149/210/12 150/177/26
f 151/211/3 152/212/8 153/157/16
f 154/213/3 155/178/16 156/214/10
f 63/215/9 62/216/36 61/120/5 64/119/5
f 65/106/11 68/105/11 67/118/5 66/117/5
f 71/115/16 74/114/16 73/217/9 72/218/28
f 75/113/16 70/116/16 69/108/11 76/107/11
f 79/110/9 78/109/9 77/136/5 80/135/24
f 81/122/11 84/121/11 83/134/4 82/133/4
f 87/131/16 90/130/16 89/219/9 88/220/9
f 91/129/16 86/132/16 85/124/11 92/123/23
f 95/126/9 94/125/9 93/152/5 96/151/5
f 97/138/11 100/137/11 99/150/5 98/149/7
f 103/147/16 106/146/16 105/221/9 104/222/9
f 107/145/16 102/148/16 101/140/11 108/139/23
f 135/165/24 137/142/4 136/201/1 133/199/1
f 112/168/30 110/167/8 109/144/6 113/143/6
f 144/141/7 140/161/5 139/203/27 142/205/22
f 115/174/10 119/173/10 118/166/25 116/164/4
f 145/207/1 148/209/1 150/177/26 146/158/16
f 124/180/16 128/179/16 127/198/34 125/197/34
f 154/213/3 151/211/3 153/157/16 155/178/16
f 130/160/16 122/159/16 121/176/32 131/175/37
f 137/142/4 144/141/7 143/206/11 138/202/11
f 140/161/5 135/165/24 134/200/9 141/204/9
f 149/210/12 156/214/10 155/178/16 150/177/26
f 152/212/8 147/208/28 146/158/16 153/157/16
f 133/185/1 145/184/1 147/193/28 134/196/9
f 151/189/3 139/192/27 141/195/9 152/194/8
f 156/153/10 143/156/11 142/191/22 154/190/3
f 148/183/1 136/186/1 138/223/11 149/224/12
f 62/216/36 63/215/9 72/225/28 73/226/9
f 164/227/1 161/228/1 168/229/1 165/230/1
f 167/231/9 160/232/9 159/233/9 166/234/34
f 161/228/1 164/227/1 163/235/12 162/236/38
f 167/231/9 166/234/34 165/230/1 168/229/1
f 162/236/38 163/235/12 158/237/11 157/238/11
f 196/239/1 193/240/1 200/241/1 197/242/1
f 202/243/24 203/244/24 174/245/5 173/246/5
f 199/247/16 172/248/16 171/249/16 198/250/19
f 231/251/9 188/252/9 187/253/9 230/254/9
f 204/255/17 201/256/1 208/257/2 205/258/1
f 207/259/16 176/260/16 175/261/16 206/262/19
f 212/263/1 209/264/1 216/265/2 213/266/1
f 215/267/16 180/268/16 179/269/16 214/270/19
f 218/271/10 219/272/11 182/273/11 181/274/11
f 220/275/1 217/276/1 224/277/1 221/278/1
f 223/279/9 184/280/9 183/281/9 222/282/9
f 226/283/1 227/284/1 232/285/1 229/286/1
f 239/287/9 192/288/9 191/289/9 238/290/34
f 234/291/1 235/292/1 240/293/1 237/294/1
f 228/295/11 225/296/11 185/297/11 186/298/11
f 210/299/4 211/300/5 178/301/5 177/302/5
f 236/303/10 233/304/11 189/305/11 190/306/11
f 193/240/1 196/239/1 195/307/5 194/308/4
f 199/247/16 198/250/19 197/242/1 200/241/1
f 227/284/1 226/283/1 225/296/11 228/295/11
f 209/264/1 212/263/1 211/300/5 210/299/4
f 215/267/16 214/270/19 213/266/1 216/265/2
f 217/276/1 220/275/1 219/272/11 218/271/10
f 223/279/9 222/282/9 221/278/1 224/277/1
f 201/256/1 204/255/17 203/244/24 202/243/24
f 207/259/16 206/262/19 205/258/1 208/257/2
f 231/251/9 230/254/9 229/286/1 232/285/1
f 235/292/1 234/291/1 233/304/11 236/303/10
f 239/287/9 238/290/34 237/294/1 240/293/1
f 194/308/4 195/307/5 170/309/5 169/310/5
f 426/311/1 303/312/1 436/313/1 444/314/1
f 287/315/16 241/316/16 244/317/16 289/318/16
f 313/319/18 620/320/1 637/321/1 260/322/1
f 427/323/39 321/324/18 263/325/1 453/326/40
f 321/324/18 313/319/18 260/322/1 263/325/1
f 258/327/11 336/328/11 319/329/11 437/330/11
f 331/331/16 311/332/16 320/333/19 335/334/16
f 639/335/1 262/336/1 264/337/1 646/338/1
f 346/339/16 408/340/16 326/341/16 407/342/19
f 398/343/6 377/344/5 404/345/5 402/346/5
f 389/347/9 511/348/8 286/349/9 245/350/9
f 328/351/1 449/352/1 450/353/1 337/354/1
f 308/355/14 331/331/16 335/334/16 309/356/16
f 332/357/9 333/358/9 317/359/9 312/360/9
f 257/361/11 310/362/41 336/328/11 258/327/11
f 334/363/26 290/364/16 616/365/16 318/366/16
f 305/367/11 257/361/11 258/327/11 330/368/11
f 379/369/1 513/370/1 510/371/1 390/372/40
f 394/373/1 399/374/1 401/375/1 396/376/1
f 409/377/11 345/378/11 415/379/11 421/380/11
f 344/381/9 247/382/9 352/383/34 412/384/36
f 295/385/16 253/386/16 254/387/16 342/388/26
f 438/389/9 259/390/9 247/382/9 344/381/9
f 440/391/1 439/392/1 343/393/1 340/394/18
f 354/395/4 392/396/5 256/397/5 255/398/5
f 429/399/1 516/400/1 509/401/1 362/402/1
f 294/403/5 626/404/5 358/405/5 251/406/5
f 384/407/34 323/408/36 372/409/9 386/410/9
f 497/411/1 283/412/1 374/413/1 431/414/1
f 281/415/1 669/416/18 631/417/1 322/418/1
f 285/419/11 508/420/11 376/421/23 387/422/11
f 385/423/5 371/424/5 627/425/5 293/426/5
f 502/427/1 379/369/1 390/372/40 503/428/1
f 365/429/5 368/430/7 388/431/5 383/432/5
f 370/433/5 385/423/5 293/426/5 291/434/5
f 284/435/11 285/419/11 387/422/11 367/436/11
f 373/437/1 322/418/1 631/417/1 628/438/1
f 366/439/42 384/407/34 386/410/9 369/440/9
f 419/441/16 423/442/16 422/443/16 417/444/16
f 395/445/9 400/446/9 403/447/9 252/448/9
f 357/449/1 507/450/1 516/400/1 429/399/1
f 511/348/8 395/445/9 252/448/9 286/349/9
f 513/370/1 394/373/1 396/376/1 510/371/1
f 505/451/9 512/452/9 380/453/9 249/454/9
f 242/455/9 445/456/9 448/457/9 327/458/9
f 348/459/36 413/460/8 424/461/9 418/462/9
f 414/463/16 350/464/16 410/465/16 351/466/19
f 350/464/16 346/339/16 407/342/19 410/465/16
f 347/467/1 349/468/1 420/469/1 416/470/1
f 442/471/43 428/472/11 517/473/11 531/474/43
f 353/475/10 378/476/11 397/477/11 393/478/10
f 476/479/1 275/480/1 279/481/1 486/482/40
f 625/483/1 633/484/1 250/485/1 359/486/1
f 298/487/1 426/311/1 444/314/1 433/488/1
f 466/489/1 271/490/1 275/480/1 476/479/1
f 434/491/14 443/492/16 533/493/16 535/494/16
f 618/495/1 300/496/18 243/497/1 624/498/18
f 299/499/36 435/500/9 441/501/9 339/502/36
f 435/500/9 242/455/9 327/458/9 441/501/9
f 340/394/18 343/393/1 411/503/1 406/504/1
f 307/505/9 315/506/9 333/358/9 332/357/9
f 342/388/26 254/387/16 425/507/16 297/508/16
f 253/386/16 306/509/16 329/510/14 254/387/16
f 254/387/16 329/510/14 304/511/16 425/507/16
f 445/456/9 460/512/9 461/513/9 448/457/9
f 338/514/8 246/515/9 259/390/9 438/389/9
f 338/514/8 451/516/9 261/517/9 246/515/9
f 328/351/1 337/354/1 439/392/1 440/391/1
f 383/432/5 388/431/5 375/518/5 324/519/5
f 316/520/1 615/521/1 620/320/1 313/319/18
f 516/400/1 431/414/1 374/413/1 509/401/1
f 454/522/6 446/523/5 527/524/5 538/525/5
f 453/326/40 263/325/1 267/526/1 456/527/1
f 451/516/9 464/528/9 266/529/9 261/517/9
f 447/530/1 453/326/40 456/527/1 458/531/1
f 459/532/15 455/533/14 546/534/14 544/535/16
f 263/325/1 260/322/1 265/536/1 267/526/1
f 646/338/1 264/337/1 268/537/1 651/538/1
f 456/527/1 267/526/1 271/490/1 466/489/1
f 470/539/1 466/489/1 476/479/1 478/540/1
f 464/528/9 474/541/9 270/542/9 266/529/9
f 462/543/1 472/544/1 473/545/1 463/546/1
f 457/547/43 465/548/23 549/549/11 547/550/11
f 267/526/1 265/536/1 269/551/1 271/490/1
f 651/538/1 268/537/1 272/552/1 658/553/1
f 467/554/7 469/555/5 542/556/5 550/557/5
f 479/558/14 475/559/16 558/560/16 556/561/16
f 474/541/9 484/562/9 274/563/9 270/542/9
f 472/544/1 482/564/1 483/565/1 473/545/1
f 468/566/9 480/567/9 481/568/9 471/569/44
f 271/490/1 269/551/1 273/570/1 275/480/1
f 658/553/1 272/552/1 276/571/1 663/572/1
f 242/455/9 435/500/9 534/573/9 519/574/9
f 487/575/6 489/576/5 554/577/5 562/578/5
f 484/562/9 494/579/9 278/580/9 274/563/9
f 482/564/1 492/581/1 493/582/1 483/565/1
f 477/583/43 485/584/23 561/585/23 559/586/11
f 275/480/1 273/570/1 277/587/1 279/481/1
f 663/572/1 276/571/1 280/588/1 667/589/1
f 488/590/9 500/591/9 501/592/9 491/593/45
f 499/594/20 496/595/16 530/596/16 565/597/16
f 494/579/9 504/598/8 282/599/9 278/580/9
f 492/581/1 502/427/1 503/428/1 493/582/1
f 490/600/1 486/482/40 497/411/1 498/601/1
f 279/481/1 277/587/1 281/415/1 283/412/1
f 655/602/20 657/603/16 599/604/16 600/605/16
f 356/606/9 391/607/36 512/452/9 505/451/9
f 500/591/9 249/454/9 380/453/9 501/592/9
f 504/598/8 389/347/9 245/350/9 282/599/9
f 255/398/5 256/397/5 382/608/5 363/609/5
f 392/396/5 355/610/5 430/611/5 256/397/5
f 364/612/11 381/613/23 285/419/11 284/435/11
f 256/397/5 430/611/5 361/614/5 382/608/5
f 545/615/1 548/616/1 551/617/1 541/618/1
f 568/619/1 523/620/1 522/621/1 571/622/1
f 566/623/1 529/624/1 522/621/1 523/620/1
f 536/625/1 532/626/1 518/627/1 520/628/1
f 557/629/1 560/630/1 563/631/1 553/632/1
f 621/633/20 623/634/14 574/635/16 577/636/16
f 486/482/40 279/481/1 283/412/1 497/411/1
f 468/566/9 460/512/9 543/637/36 540/638/8
f 249/454/9 500/591/9 564/639/36 524/640/9
f 520/628/1 518/627/1 539/641/1 526/642/1
f 488/590/9 480/567/9 555/643/36 552/644/9
f 514/645/6 506/646/5 569/647/5 570/648/5
f 432/649/11 515/650/23 572/651/23 521/652/11
f 428/472/11 452/653/11 537/654/23 517/473/11
f 460/512/9 468/566/9 471/569/44 461/513/9
f 480/567/9 488/590/9 491/593/45 481/568/9
f 505/451/9 249/454/9 524/640/9 567/655/9
f 495/656/43 432/649/11 521/652/11 528/657/11
f 445/456/9 242/455/9 519/574/9 525/658/8
f 449/352/1 462/543/1 463/546/1 450/353/1
f 663/572/1 667/589/1 669/416/18 661/659/1
f 273/570/1 654/660/1 661/659/1 277/587/1
f 651/538/1 658/553/1 654/660/1 649/661/1
f 265/536/1 642/662/18 649/661/1 269/551/1
f 633/484/1 625/483/1 628/438/1 631/417/1
f 292/663/5 294/403/5 251/406/5 248/664/5
f 381/613/23 360/665/23 508/420/11 285/419/11
f 283/412/1 281/415/1 322/418/1 374/413/1
f 314/666/16 288/667/16 290/364/16 334/363/26
f 639/335/1 646/338/1 642/662/18 637/321/1
f 330/368/11 258/327/11 437/330/11 302/668/11
f 289/318/16 244/317/16 301/669/16 617/670/16
f 277/587/1 661/659/1 669/416/18 281/415/1
f 667/589/1 280/588/1 250/485/1 633/484/1
f 269/551/1 649/661/1 654/660/1 273/570/1
f 289/318/16 617/670/16 616/365/16 290/364/16
f 260/322/1 637/321/1 642/662/18 265/536/1
f 656/671/43 662/672/11 611/673/11 597/674/11
f 294/403/5 292/663/5 291/434/5 293/426/5
f 626/404/5 294/403/5 293/426/5 627/425/5
f 634/675/6 630/676/5 673/677/5 674/678/5
f 287/315/16 289/318/16 290/364/16 288/667/16
f 670/679/20 666/680/16 606/681/16 603/682/16
f 624/498/18 243/497/1 262/336/1 639/335/1
f 618/495/1 624/498/18 620/320/1 615/521/1
f 444/314/1 436/313/1 321/324/18 427/323/39
f 643/683/20 645/684/16 585/685/16 589/686/16
f 635/687/9 619/688/36 576/689/36 583/690/9
f 629/691/8 668/692/36 605/693/9 671/694/9
f 622/695/43 638/696/11 579/697/11 575/698/11
f 608/699/1 675/700/1 672/701/1 604/702/1
f 573/703/1 581/704/1 584/705/1 578/706/1
f 647/707/8 641/708/9 588/709/9 594/710/8
f 640/711/6 636/712/5 582/713/5 580/714/5
f 664/715/6 660/716/5 614/717/5 609/718/5
f 587/719/1 592/720/18 595/721/1 590/722/1
f 659/723/8 653/724/9 602/725/9 612/726/9
f 665/727/43 632/728/11 676/729/11 607/730/11
f 652/731/7 648/732/5 596/733/5 591/734/5
f 598/735/1 610/736/1 613/737/1 601/738/1
f 644/739/43 650/740/11 593/741/11 586/742/11
f 297/743/16 298/487/1 299/499/36
f 302/744/11 303/312/1 304/745/16
f 311/746/16 312/747/9 313/319/18
f 316/520/1 317/748/9 318/749/16
f 319/750/11 320/751/19 321/324/18
f 322/418/1 323/752/36 324/753/5
f 339/502/36 340/394/18 341/754/43 342/755/26
f 345/756/11 346/339/16 347/757/1
f 348/758/36 349/759/1 350/464/16
f 355/760/5 356/606/9 357/449/1
f 360/761/23 361/762/5 362/402/1
f 371/763/5 372/764/9 373/437/1
f 374/413/1 375/765/5 376/766/23
f 391/607/36 392/767/5 393/768/10 394/373/1
f 397/769/11 398/770/6 399/374/1
f 400/446/9 401/375/1 402/771/5
f 405/772/11 406/504/1 407/773/19
f 410/774/16 411/503/1 412/384/36
f 415/379/11 416/470/1 417/444/16
f 418/462/9 419/441/16 420/469/1
f 433/488/1 434/491/14 435/500/9
f 442/471/43 443/492/16 444/314/1
f 445/456/9 446/523/5 447/530/1
f 452/653/11 453/326/40 454/522/6
f 455/533/14 456/527/1 457/547/43
f 458/531/1 459/532/15 460/512/9
f 465/548/23 466/489/1 467/554/7
f 468/566/9 469/555/5 470/539/1
f 475/559/16 476/479/1 477/583/43
f 478/540/1 479/558/14 480/567/9
f 485/584/23 486/482/40 487/575/6
f 488/590/9 489/576/5 490/600/1
f 495/656/43 496/595/16 497/411/1
f 498/601/1 499/594/20 500/591/9
f 505/451/9 506/646/5 507/450/1
f 514/645/6 515/650/23 516/400/1
f 525/658/8 526/642/1 527/524/5
f 528/657/11 529/624/1 530/596/16
f 531/474/43 532/626/1 533/493/16
f 534/573/9 535/494/16 536/625/1
f 537/654/23 538/525/5 539/641/1
f 540/638/8 541/618/1 542/556/5
f 543/637/36 544/535/16 545/615/1
f 546/534/14 547/550/11 548/616/1
f 549/549/11 550/557/5 551/617/1
f 552/644/9 553/632/1 554/577/5
f 555/643/36 556/561/16 557/629/1
f 558/560/16 559/586/11 560/630/1
f 561/585/23 562/578/5 563/631/1
f 564/639/36 565/597/16 566/623/1
f 567/655/9 568/619/1 569/647/5
f 570/648/5 571/622/1 572/651/23
f 573/703/1 574/635/16 575/698/11
f 576/689/36 577/636/16 578/706/1
f 579/697/11 580/714/5 581/704/1
f 582/713/5 583/690/9 584/705/1
f 585/685/16 586/742/11 587/719/1
f 588/709/9 589/686/16 590/722/1
f 591/734/5 592/720/18 593/741/11
f 594/710/8 595/721/1 596/733/5
f 597/674/11 598/735/1 599/604/16
f 600/605/16 601/738/1 602/725/9
f 603/682/16 604/702/1 605/693/9
f 606/681/16 607/730/11 608/699/1
f 609/718/5 610/736/1 611/673/11
f 612/726/9 613/737/1 614/717/5
f 619/775/36 620/320/1 621/776/20
f 622/777/43 623/778/14 624/498/18
f 629/779/8 630/780/5 631/417/1
f 632/781/11 633/484/1 634/782/6
f 635/783/9 636/784/5 637/321/1
f 638/785/11 639/335/1 640/786/6
f 641/787/9 642/662/18 643/788/20
f 644/789/43 645/790/16 646/338/1
f 647/791/8 648/792/5 649/661/1
f 650/793/11 651/538/1 652/794/7
f 653/795/9 654/660/1 655/796/20
f 656/797/43 657/798/16 658/553/1
f 659/799/8 660/800/5 661/659/1
f 662/801/11 663/572/1 664/802/6
f 665/803/43 666/804/16 667/589/1
f 668/805/36 669/416/18 670/806/20
f 671/694/9 672/701/1 673/677/5
f 674/678/5 675/700/1 676/729/11
f 330/368/11 302/668/11 304/511/16 329/510/14
f 332/357/9 312/360/9 311/332/16 331/331/16
f 426/311/1 298/487/1 297/743/16 425/807/16
f 316/520/1 313/319/18 312/747/9 317/748/9
f 334/363/26 318/366/16 317/359/9 333/358/9
f 435/500/9 299/499/36 298/487/1 433/488/1
f 437/808/11 319/750/11 321/324/18 436/313/1
f 313/319/18 321/324/18 320/751/19 311/746/16
f 336/328/11 310/362/41 309/356/16 335/334/16
f 325/809/11 405/810/11 407/342/19 326/341/16
f 305/367/11 330/368/11 329/510/14 306/509/16
f 307/505/9 332/357/9 331/331/16 308/355/14
f 314/666/16 334/363/26 333/358/9 315/506/9
f 319/329/11 336/328/11 335/334/16 320/333/19
f 582/713/5 636/811/5 635/687/9 583/690/9
f 351/812/19 410/774/16 412/384/36 352/383/34
f 410/774/16 407/773/19 406/504/1 411/503/1
f 439/392/1 337/354/1 338/514/8 438/389/9
f 441/501/9 327/458/9 328/351/1 440/391/1
f 342/755/26 297/743/16 299/499/36 339/502/36
f 295/385/16 342/388/26 341/813/43 296/814/23
f 340/394/18 406/504/1 405/772/11 341/754/43
f 411/503/1 343/393/1 344/381/9 412/384/36
f 423/442/16 419/441/16 418/462/9 424/461/9
f 644/739/43 586/742/11 585/685/16 645/815/16
f 382/608/5 361/614/5 360/665/23 381/613/23
f 430/816/5 355/760/5 357/449/1 429/399/1
f 576/689/36 619/688/36 621/817/20 577/636/16
f 386/410/9 372/409/9 371/424/5 385/423/5
f 514/645/6 570/648/5 572/651/23 515/650/23
f 507/450/1 357/449/1 356/606/9 505/451/9
f 509/401/1 374/413/1 376/766/23 508/818/11
f 388/431/5 368/430/7 367/436/11 387/422/11
f 377/344/5 398/343/6 397/477/11 378/476/11
f 363/609/5 382/608/5 381/613/23 364/612/11
f 365/429/5 383/432/5 384/407/34 366/439/42
f 369/440/9 386/410/9 385/423/5 370/433/5
f 375/518/5 388/431/5 387/422/11 376/421/23
f 629/691/8 671/694/9 673/677/5 630/819/5
f 403/447/9 400/446/9 402/771/5 404/820/5
f 401/375/1 399/374/1 398/770/6 402/771/5
f 511/348/8 389/347/9 390/372/40 510/371/1
f 513/370/1 379/369/1 380/453/9 512/452/9
f 391/607/36 356/606/9 355/760/5 392/767/5
f 353/475/10 393/478/10 392/396/5 354/395/4
f 393/768/10 397/769/11 399/374/1 394/373/1
f 400/446/9 395/445/9 396/376/1 401/375/1
f 593/741/11 650/740/11 652/821/7 591/734/5
f 324/753/5 375/765/5 374/413/1 322/418/1
f 449/352/1 328/351/1 327/458/9 448/457/9
f 451/516/9 338/514/8 337/354/1 450/353/1
f 383/432/5 324/519/5 323/408/36 384/407/34
f 372/764/9 323/752/36 322/418/1 373/437/1
f 408/340/16 346/339/16 345/756/11 409/822/11
f 413/823/8 348/758/36 350/464/16 414/463/16
f 349/759/1 347/757/1 346/339/16 350/464/16
f 421/380/11 415/379/11 417/444/16 422/443/16
f 419/441/16 417/444/16 416/470/1 420/469/1
f 415/379/11 345/824/11 347/467/1 416/470/1
f 348/825/36 418/462/9 420/469/1 349/468/1
f 303/312/1 426/311/1 425/807/16 304/745/16
f 361/762/5 430/816/5 429/399/1 362/402/1
f 497/411/1 431/414/1 432/649/11 495/656/43
f 444/314/1 427/323/39 428/472/11 442/471/43
f 302/744/11 437/808/11 436/313/1 303/312/1
f 343/393/1 439/392/1 438/389/9 344/381/9
f 339/502/36 441/501/9 440/391/1 340/394/18
f 443/492/16 434/491/14 433/488/1 444/314/1
f 460/512/9 445/456/9 447/530/1 458/531/1
f 462/543/1 449/352/1 448/457/9 461/513/9
f 464/528/9 451/516/9 450/353/1 463/546/1
f 427/323/39 453/326/40 452/653/11 428/472/11
f 453/326/40 447/530/1 446/523/5 454/522/6
f 655/826/20 600/605/16 602/725/9 653/724/9
f 472/544/1 462/543/1 461/513/9 471/569/44
f 474/541/9 464/528/9 463/546/1 473/545/1
f 455/533/14 459/532/15 458/531/1 456/527/1
f 672/701/1 675/700/1 674/678/5 673/677/5
f 456/527/1 466/489/1 465/548/23 457/547/43
f 480/567/9 468/566/9 470/539/1 478/540/1
f 482/564/1 472/544/1 471/569/44 481/568/9
f 484/562/9 474/541/9 473/545/1 483/565/1
f 466/489/1 470/539/1 469/555/5 467/554/7
f 577/636/16 574/635/16 573/703/1 578/706/1
f 492/581/1 482/564/1 481/568/9 491/593/45
f 494/579/9 484/562/9 483/565/1 493/582/1
f 475/559/16 479/558/14 478/540/1 476/479/1
f 586/742/11 593/741/11 592/720/18 587/719/1
f 476/479/1 486/482/40 485/584/23 477/583/43
f 500/591/9 488/590/9 490/600/1 498/601/1
f 502/427/1 492/581/1 491/593/45 501/592/9
f 504/598/8 494/579/9 493/582/1 503/428/1
f 486/482/40 490/600/1 489/576/5 487/575/6
f 612/726/9 602/725/9 601/738/1 613/737/1
f 379/369/1 502/427/1 501/592/9 380/453/9
f 389/347/9 504/598/8 503/428/1 390/372/40
f 496/595/16 499/594/20 498/601/1 497/411/1
f 608/699/1 604/702/1 603/682/16 606/681/16
f 362/402/1 509/401/1 508/818/11 360/761/23
f 395/445/9 511/348/8 510/371/1 396/376/1
f 394/373/1 513/370/1 512/452/9 391/607/36
f 431/414/1 516/400/1 515/650/23 432/649/11
f 506/646/5 514/645/6 516/400/1 507/450/1
f 525/658/8 519/574/9 520/628/1 526/642/1
f 528/657/11 521/652/11 522/621/1 529/624/1
f 531/474/43 517/473/11 518/627/1 532/626/1
f 519/574/9 534/573/9 536/625/1 520/628/1
f 532/626/1 536/625/1 535/494/16 533/493/16
f 517/473/11 537/654/23 539/641/1 518/627/1
f 538/525/5 527/524/5 526/642/1 539/641/1
f 540/638/8 543/637/36 545/615/1 541/618/1
f 548/616/1 545/615/1 544/535/16 546/534/14
f 547/550/11 549/549/11 551/617/1 548/616/1
f 550/557/5 542/556/5 541/618/1 551/617/1
f 552/644/9 555/643/36 557/629/1 553/632/1
f 560/630/1 557/629/1 556/561/16 558/560/16
f 559/586/11 561/585/23 563/631/1 560/630/1
f 562/578/5 554/577/5 553/632/1 563/631/1
f 524/640/9 564/639/36 566/623/1 523/620/1
f 529/624/1 566/623/1 565/597/16 530/596/16
f 523/620/1 568/619/1 567/655/9 524/640/9
f 521/652/11 572/651/23 571/622/1 522/621/1
f 568/619/1 571/622/1 570/648/5 569/647/5
f 457/547/43 547/550/11 546/534/14 455/533/14
f 543/637/36 460/512/9 459/532/15 544/535/16
f 527/524/5 446/523/5 445/456/9 525/658/8
f 434/491/14 535/494/16 534/573/9 435/500/9
f 468/566/9 540/638/8 542/556/5 469/555/5
f 549/549/11 465/548/23 467/554/7 550/557/5
f 477/583/43 559/586/11 558/560/16 475/559/16
f 555/643/36 480/567/9 479/558/14 556/561/16
f 488/590/9 552/644/9 554/577/5 489/576/5
f 561/585/23 485/584/23 487/575/6 562/578/5
f 495/656/43 528/657/11 530/596/16 496/595/16
f 564/639/36 500/591/9 499/594/20 565/597/16
f 505/451/9 567/655/9 569/647/5 506/646/5
f 533/493/16 443/492/16 442/471/43 531/474/43
f 454/522/6 538/525/5 537/654/23 452/653/11
f 588/709/9 641/708/9 643/827/20 589/686/16
f 640/828/6 580/714/5 579/697/11 638/696/11
f 622/695/43 575/698/11 574/635/16 623/829/14
f 611/673/11 662/672/11 664/830/6 609/718/5
f 647/707/8 594/710/8 596/733/5 648/831/5
f 671/694/9 605/693/9 604/702/1 672/701/1
f 583/690/9 576/689/36 578/706/1 584/705/1
f 584/705/1 581/704/1 580/714/5 582/713/5
f 589/686/16 585/685/16 587/719/1 590/722/1
f 597/674/11 611/673/11 610/736/1 598/735/1
f 613/737/1 610/736/1 609/718/5 614/717/5
f 600/605/16 599/604/16 598/735/1 601/738/1
f 595/721/1 592/720/18 591/734/5 596/733/5
f 594/710/8 588/709/9 590/722/1 595/721/1
f 575/698/11 579/697/11 581/704/1 573/703/1
f 607/730/11 676/729/11 675/700/1 608/699/1
f 656/671/43 597/674/11 599/604/16 657/832/16
f 676/729/11 632/728/11 634/833/6 674/678/5
f 605/693/9 668/692/36 670/834/20 603/682/16
f 665/727/43 607/730/11 606/681/16 666/835/16
f 614/717/5 660/836/5 659/723/8 612/726/9
f 660/800/5 664/802/6 663/572/1 661/659/1
f 666/804/16 670/806/20 669/416/18 667/589/1
f 654/660/1 658/553/1 657/798/16 655/796/20
f 658/553/1 663/572/1 662/801/11 656/797/43
f 661/659/1 654/660/1 653/795/9 659/799/8
f 648/792/5 652/794/7 651/538/1 649/661/1
f 642/662/18 646/338/1 645/790/16 643/788/20
f 646/338/1 651/538/1 650/793/11 644/789/43
f 649/661/1 642/662/18 641/787/9 647/791/8
f 636/784/5 640/786/6 639/335/1 637/321/1
f 620/320/1 624/498/18 623/778/14 621/776/20
f 624/498/18 639/335/1 638/785/11 622/777/43
f 637/321/1 620/320/1 619/775/36 635/783/9
f 630/780/5 634/782/6 633/484/1 631/417/1
f 626/837/5 627/838/5 628/438/1 625/483/1
f 667/589/1 633/484/1 632/781/11 665/803/43
f 631/417/1 669/416/18 668/805/36 629/779/8
f 616/839/16 617/840/16 618/495/1 615/521/1
f 615/521/1 316/520/1 318/749/16 616/839/16
f 617/840/16 301/841/16 300/496/18 618/495/1
f 373/437/1 628/438/1 627/838/5 371/763/5
f 625/483/1 359/486/1 358/842/5 626/837/5
f 296/814/23 341/813/43 405/810/11 325/809/11
f 691/843/9 684/844/9 679/845/9 688/846/9
f 689/847/1 682/848/1 683/849/1 692/850/1
f 685/851/11 678/852/11 681/853/11 690/854/11
f 677/855/27 678/852/11 685/851/11 686/856/3
f 689/847/1 690/854/11 681/853/11 682/848/1
f 691/843/9 692/850/1 683/849/1 684/844/9
f 687/857/46 688/846/9 679/845/9 680/858/3
f 687/857/46 680/858/3 677/859/27 686/860/3
